<svg width="249.000000" height="23.000000" viewBox="0 0 249 23" fill="none" xmlns="http://www.w3.org/2000/svg" xmlns:xlink="http://www.w3.org/1999/xlink">
	<desc>
			Created with Pixso.
	</desc>
	<defs>
		<clipPath id="clip1_6">
			<rect id="Frame" width="28.009594" height="20.000000" transform="translate(220.000000 2.000000)" fill="white" fill-opacity="0"/>
		</clipPath>
		<clipPath id="clip1_9">
			<rect id="Frame" width="23.000000" height="22.000000" transform="translate(162.000000 0.000000)" fill="white" fill-opacity="0"/>
		</clipPath>
		<clipPath id="clip1_995">
			<rect id="Frame" width="25.000000" height="20.000000" transform="translate(0.000000 2.000000)" fill="white" fill-opacity="0"/>
		</clipPath>
		<clipPath id="clip1_999">
			<rect id="Frame" width="10.000000" height="22.000000" transform="translate(60.000000 0.000000)" fill="white" fill-opacity="0"/>
		</clipPath>
		<clipPath id="clip1_1002">
			<rect id="Frame" width="22.000000" height="22.000000" transform="translate(105.000000 1.000000)" fill="white" fill-opacity="0"/>
		</clipPath>
	</defs>
	<rect id="Frame" width="28.009594" height="20.000000" transform="translate(220.000000 2.000000)" fill="#FFFFFF" fill-opacity="0"/>
	<g clip-path="url(#clip1_6)">
		<path id="Vector" d="M247.98 9.64C247.98 9.09 247.93 8.37 247.84 7.51C247.77 6.65 247.65 5.88 247.5 5.21C247.33 4.44 246.97 3.82 246.42 3.29C245.87 2.76 245.22 2.47 244.48 2.38C242.18 2.11 238.68 2 234 2C229.32 2 225.82 2.11 223.52 2.38C222.78 2.47 222.13 2.76 221.58 3.29C221.03 3.82 220.67 4.44 220.5 5.21C220.33 5.88 220.24 6.65 220.14 7.51C220.07 8.37 220.02 9.09 220 9.64C220 10.22 220 10.99 220 12C220 13 220 13.77 220.02 14.35C220.02 14.9 220.07 15.62 220.16 16.48C220.21 17.34 220.33 18.11 220.48 18.78C220.64 19.55 221 20.17 221.55 20.7C222.11 21.23 222.75 21.52 223.5 21.61C225.8 21.88 229.3 22 233.98 22C238.65 22 242.15 21.88 244.46 21.61C245.2 21.54 245.85 21.23 246.4 20.7C246.95 20.17 247.31 19.55 247.48 18.78C247.65 18.11 247.74 17.34 247.84 16.48C247.91 15.62 247.96 14.9 247.98 14.35C247.98 13.79 248.01 13 248.01 12C248.01 10.99 248.01 10.22 247.98 9.64ZM239.54 12.83L231.53 17.85C231.39 17.94 231.22 18.01 231 18.01C230.83 18.01 230.69 17.97 230.52 17.89C230.19 17.7 230 17.41 230 17.01L230 7.01C230 6.6 230.16 6.31 230.52 6.12C230.88 5.93 231.22 5.95 231.53 6.14L235.54 8.65L239.54 11.16C239.85 11.32 240.02 11.61 240.02 12C240 12.38 239.85 12.67 239.54 12.83Z" fill="#000000" fill-opacity="1.000000" fill-rule="nonzero"/>
	</g>
	<rect id="Frame" width="23.000000" height="22.000000" transform="translate(162.000000 0.000000)" fill="#FFFFFF" fill-opacity="0"/>
	<g clip-path="url(#clip1_9)">
		<path id="Vector" d="M162.27 7.14L167.21 7.14L167.21 22L162.27 22L162.27 7.14Z" fill="#000000" fill-opacity="1.000000" fill-rule="evenodd"/>
		<path id="Vector" d="M183.43 8.5C182.4 7.37 181.02 6.8 179.32 6.8C178.7 6.8 178.13 6.87 177.6 7.03C177.09 7.19 176.65 7.4 176.29 7.67C175.94 7.95 175.64 8.2 175.44 8.45C175.23 8.68 175.05 8.94 174.86 9.24L174.86 7.12L169.95 7.12L169.97 7.83C169.97 8.32 169.99 9.79 169.99 12.27C169.99 14.75 169.99 17.97 169.97 21.97L174.89 21.97L174.89 13.7C174.89 13.19 174.93 12.78 175.05 12.48C175.25 11.97 175.57 11.54 175.99 11.19C176.4 10.85 176.93 10.68 177.57 10.68C178.42 10.68 179.07 10.98 179.46 11.58C179.87 12.18 180.06 13.01 180.06 14.04L180.06 21.97L184.97 21.97L184.97 13.47C185 11.28 184.49 9.63 183.43 8.5Z" fill="#000000" fill-opacity="1.000000" fill-rule="nonzero"/>
		<path id="Vector" d="M164.78 0C163.95 0 163.28 0.25 162.78 0.73C162.25 1.21 162 1.81 162 2.55C162 3.28 162.25 3.88 162.75 4.39C163.26 4.87 163.9 5.12 164.73 5.12L164.75 5.12C165.6 5.12 166.27 4.87 166.77 4.39C167.28 3.9 167.53 3.28 167.53 2.55C167.53 1.81 167.26 1.19 166.77 0.71C166.27 0.25 165.6 0 164.78 0Z" fill="#000000" fill-opacity="1.000000" fill-rule="nonzero"/>
	</g>
	<rect id="Frame" width="25.000000" height="20.000000" transform="translate(0.000000 2.000000)" fill="#FFFFFF" fill-opacity="0"/>
	<g clip-path="url(#clip1_995)">
		<path id="Vector" d="M24.99 4.37C24.02 4.78 23.02 5.04 22.05 5.16C23.17 4.51 23.9 3.58 24.31 2.38C23.29 2.95 22.19 3.36 21.05 3.58C20.03 2.52 18.79 2 17.3 2C15.89 2 14.67 2.5 13.67 3.48C12.68 4.46 12.17 5.66 12.17 7.06C12.17 7.44 12.21 7.82 12.29 8.21C10.19 8.11 8.22 7.58 6.4 6.65C4.57 5.71 3.01 4.46 1.72 2.93C1.26 3.72 1.02 4.56 1.02 5.47C1.02 6.34 1.21 7.15 1.62 7.87C2.04 8.61 2.6 9.21 3.28 9.67C2.45 9.64 1.67 9.43 0.97 9.02L0.97 9.09C0.97 10.32 1.36 11.37 2.14 12.31C2.92 13.22 3.89 13.82 5.08 14.06C4.64 14.18 4.18 14.23 3.74 14.23C3.45 14.23 3.13 14.2 2.77 14.15C3.09 15.16 3.69 16 4.57 16.65C5.45 17.29 6.44 17.63 7.56 17.65C5.71 19.09 3.57 19.81 1.21 19.81C0.75 19.81 0.33 19.79 -0.03 19.74C2.36 21.25 4.98 22 7.83 22C9.66 22 11.36 21.71 12.97 21.16C14.58 20.58 15.94 19.84 17.06 18.88C18.18 17.92 19.18 16.82 19.98 15.59C20.81 14.35 21.42 13.05 21.81 11.71C22.19 10.36 22.41 9 22.41 7.65C22.41 7.37 22.41 7.15 22.39 7.01C23.44 6.26 24.29 5.4 24.99 4.37Z" fill="#000000" fill-opacity="1.000000" fill-rule="nonzero"/>
	</g>
	<rect id="Frame" width="10.000000" height="22.000000" transform="translate(60.000000 0.000000)" fill="#FFFFFF" fill-opacity="0"/>
	<g clip-path="url(#clip1_999)">
		<path id="Vector" d="M66.64 7.21L66.64 5.3C66.64 5.01 66.66 4.79 66.68 4.64C66.7 4.48 66.76 4.34 66.86 4.19C66.96 4.05 67.1 3.95 67.3 3.89C67.5 3.83 67.78 3.81 68.12 3.81L69.98 3.81L69.98 0L67 0C65.28 0 64.07 0.4 63.33 1.24C62.59 2.08 62.21 3.29 62.21 4.93L62.21 7.21L60 7.21L60 11L62.21 11L62.21 22L66.64 22L66.64 11L69.6 11L70 7.21L66.64 7.21Z" fill="#000000" fill-opacity="1.000000" fill-rule="nonzero"/>
	</g>
	<rect id="Frame" width="22.000000" height="22.000000" transform="translate(105.000000 1.000000)" fill="#FFFFFF" fill-opacity="0"/>
	<g clip-path="url(#clip1_1002)">
		<path id="Vector" d="M120.93 1L111.07 1C107.71 1 105 3.71 105 7.06L105 16.93C105 20.28 107.71 23 111.07 23L120.93 23C124.28 23 127 20.28 127 16.93L127 7.06C127 3.71 124.28 1 120.93 1ZM125.04 16.93C125.04 19.2 123.19 21.04 120.93 21.04L111.07 21.04C108.79 21.04 106.95 19.19 106.95 16.93L106.95 7.06C106.95 4.8 108.8 2.95 111.07 2.95L120.93 2.95C123.2 2.95 125.04 4.8 125.04 7.06L125.04 16.93Z" fill="#000000" fill-opacity="1.000000" fill-rule="nonzero"/>
		<path id="Vector" d="M116 6.33C112.87 6.33 110.32 8.87 110.32 12C110.32 15.12 112.85 17.67 116 17.67C119.12 17.67 121.67 15.14 121.67 12C121.67 8.87 119.12 6.33 116 6.33ZM116 15.72C113.95 15.72 112.27 14.06 112.27 12.01C112.29 9.94 113.95 8.29 116 8.29C118.05 8.29 119.72 9.94 119.72 12C119.72 14.05 118.05 15.72 116 15.72Z" fill="#000000" fill-opacity="1.000000" fill-rule="nonzero"/>
		<path id="Vector" d="M121.9 4.67C121.53 4.67 121.15 4.82 120.89 5.1C120.63 5.36 120.47 5.73 120.47 6.1C120.47 6.48 120.62 6.85 120.89 7.11C121.15 7.37 121.53 7.54 121.9 7.54C122.28 7.54 122.65 7.39 122.91 7.11C123.17 6.85 123.33 6.48 123.33 6.1C123.33 5.73 123.19 5.36 122.91 5.1C122.65 4.82 122.29 4.67 121.9 4.67Z" fill="#000000" fill-opacity="1.000000" fill-rule="nonzero"/>
	</g>
</svg>
